%TF.GenerationSoftware,KiCad,Pcbnew,(6.0.0)*%
%TF.CreationDate,2023-03-06T12:39:07+00:00*%
%TF.ProjectId,VHF_Filter_Board,5648465f-4669-46c7-9465-725f426f6172,rev?*%
%TF.SameCoordinates,Original*%
%TF.FileFunction,Soldermask,Bot*%
%TF.FilePolarity,Negative*%
%FSLAX46Y46*%
G04 Gerber Fmt 4.6, Leading zero omitted, Abs format (unit mm)*
G04 Created by KiCad (PCBNEW (6.0.0)) date 2023-03-06 12:39:07*
%MOMM*%
%LPD*%
G01*
G04 APERTURE LIST*
%ADD10C,0.150000*%
%ADD11C,0.800000*%
%ADD12C,7.000000*%
G04 APERTURE END LIST*
D10*
X180000000Y-102000000D02*
X90000000Y-102000000D01*
X90000000Y-102000000D02*
X90000000Y-58000000D01*
X90000000Y-58000000D02*
X180000000Y-58000000D01*
X180000000Y-58000000D02*
X180000000Y-102000000D01*
G36*
X180000000Y-102000000D02*
G01*
X90000000Y-102000000D01*
X90000000Y-58000000D01*
X180000000Y-58000000D01*
X180000000Y-102000000D01*
G37*
X180000000Y-102000000D02*
X90000000Y-102000000D01*
X90000000Y-58000000D01*
X180000000Y-58000000D01*
X180000000Y-102000000D01*
D11*
%TO.C,H1*%
X173518845Y-62143845D03*
X178000000Y-60287690D03*
X174287690Y-60287690D03*
X174287690Y-64000000D03*
X176143845Y-64768845D03*
X178000000Y-64000000D03*
X178768845Y-62143845D03*
D12*
X176143845Y-62143845D03*
D11*
X176143845Y-59518845D03*
%TD*%
%TO.C,H3*%
X178625000Y-98000000D03*
X176000000Y-100625000D03*
D12*
X176000000Y-98000000D03*
D11*
X174143845Y-99856155D03*
X177856155Y-96143845D03*
X177856155Y-99856155D03*
X174143845Y-96143845D03*
X176000000Y-95375000D03*
X173375000Y-98000000D03*
%TD*%
D12*
%TO.C,H4*%
X94000000Y-98000000D03*
D11*
X94000000Y-95375000D03*
X92143845Y-99856155D03*
X91375000Y-98000000D03*
X95856155Y-96143845D03*
X94000000Y-100625000D03*
X96625000Y-98000000D03*
X95856155Y-99856155D03*
X92143845Y-96143845D03*
%TD*%
%TO.C,H2*%
X94000000Y-64625000D03*
X92143845Y-63856155D03*
D12*
X94000000Y-62000000D03*
D11*
X95856155Y-63856155D03*
X91375000Y-62000000D03*
X95856155Y-60143845D03*
X92143845Y-60143845D03*
X94000000Y-59375000D03*
X96625000Y-62000000D03*
%TD*%
M02*
