%TF.GenerationSoftware,KiCad,Pcbnew,(6.0.0)*%
%TF.CreationDate,2023-03-06T12:39:07+00:00*%
%TF.ProjectId,VHF_Filter_Board,5648465f-4669-46c7-9465-725f426f6172,rev?*%
%TF.SameCoordinates,Original*%
%TF.FileFunction,Copper,L2,Bot*%
%TF.FilePolarity,Positive*%
%FSLAX46Y46*%
G04 Gerber Fmt 4.6, Leading zero omitted, Abs format (unit mm)*
G04 Created by KiCad (PCBNEW (6.0.0)) date 2023-03-06 12:39:07*
%MOMM*%
%LPD*%
G01*
G04 APERTURE LIST*
%TA.AperFunction,ComponentPad*%
%ADD10C,0.800000*%
%TD*%
%TA.AperFunction,ComponentPad*%
%ADD11C,7.000000*%
%TD*%
%TA.AperFunction,ViaPad*%
%ADD12C,0.800000*%
%TD*%
G04 APERTURE END LIST*
D10*
%TO.P,H1,1*%
%TO.N,N/C*%
X173518845Y-62143845D03*
X178000000Y-60287690D03*
X174287690Y-60287690D03*
X174287690Y-64000000D03*
X176143845Y-64768845D03*
X178000000Y-64000000D03*
X178768845Y-62143845D03*
D11*
%TO.N,gnd*%
X176143845Y-62143845D03*
D10*
%TO.N,N/C*%
X176143845Y-59518845D03*
%TD*%
%TO.P,H3,1*%
%TO.N,N/C*%
X178625000Y-98000000D03*
X176000000Y-100625000D03*
D11*
X176000000Y-98000000D03*
D10*
X174143845Y-99856155D03*
X177856155Y-96143845D03*
X177856155Y-99856155D03*
X174143845Y-96143845D03*
X176000000Y-95375000D03*
X173375000Y-98000000D03*
%TD*%
D11*
%TO.P,H4,1*%
%TO.N,N/C*%
X94000000Y-98000000D03*
D10*
X94000000Y-95375000D03*
X92143845Y-99856155D03*
X91375000Y-98000000D03*
X95856155Y-96143845D03*
X94000000Y-100625000D03*
X96625000Y-98000000D03*
X95856155Y-99856155D03*
X92143845Y-96143845D03*
%TD*%
%TO.P,H2,1*%
%TO.N,N/C*%
X94000000Y-64625000D03*
X92143845Y-63856155D03*
D11*
X94000000Y-62000000D03*
D10*
X95856155Y-63856155D03*
X91375000Y-62000000D03*
X95856155Y-60143845D03*
X92143845Y-60143845D03*
X94000000Y-59375000D03*
X96625000Y-62000000D03*
%TD*%
D12*
%TO.N,gnd*%
X125000000Y-99000000D03*
X127000000Y-99000000D03*
X165000000Y-99000000D03*
X157000000Y-65000000D03*
X97000000Y-91000000D03*
X151000000Y-95000000D03*
X107000000Y-81000000D03*
X157000000Y-77000000D03*
X176000000Y-86000000D03*
X149000000Y-75000000D03*
X169000000Y-63000000D03*
X141000000Y-67000000D03*
X121000000Y-89000000D03*
X165000000Y-95000000D03*
X143000000Y-65000000D03*
X113000000Y-97000000D03*
X92000000Y-88000000D03*
X99000000Y-99000000D03*
X127000000Y-61000000D03*
X115000000Y-87000000D03*
X157000000Y-69000000D03*
X107000000Y-63000000D03*
X176000000Y-68000000D03*
X139000000Y-63000000D03*
X141000000Y-77000000D03*
X101000000Y-63000000D03*
X163000000Y-71000000D03*
X157000000Y-73000000D03*
X105000000Y-81000000D03*
X143000000Y-77000000D03*
X149000000Y-71000000D03*
X107000000Y-65000000D03*
X105000000Y-91000000D03*
X113000000Y-91000000D03*
X129000000Y-95000000D03*
X163000000Y-75000000D03*
X133000000Y-99000000D03*
X111000000Y-97000000D03*
X173000000Y-71000000D03*
X163000000Y-73000000D03*
X127000000Y-81000000D03*
X97000000Y-83000000D03*
X121000000Y-63000000D03*
X163000000Y-99000000D03*
X167000000Y-95000000D03*
X117000000Y-61000000D03*
X171000000Y-61000000D03*
X127000000Y-91000000D03*
X159000000Y-69000000D03*
X92000000Y-90000000D03*
X135000000Y-95000000D03*
X125000000Y-89000000D03*
X105000000Y-63000000D03*
X123000000Y-65000000D03*
X151000000Y-71000000D03*
X119000000Y-91000000D03*
X113000000Y-87000000D03*
X165000000Y-75000000D03*
X97000000Y-87000000D03*
X147000000Y-73000000D03*
X171000000Y-63000000D03*
X155000000Y-67000000D03*
X167000000Y-97000000D03*
X131000000Y-65000000D03*
X129000000Y-93000000D03*
X94000000Y-78000000D03*
X176000000Y-80000000D03*
X145000000Y-99000000D03*
X167000000Y-69000000D03*
X123000000Y-83000000D03*
X109000000Y-85000000D03*
X173000000Y-79000000D03*
X131000000Y-95000000D03*
X101000000Y-61000000D03*
X101000000Y-95000000D03*
X99000000Y-83000000D03*
X163000000Y-67000000D03*
X169000000Y-73000000D03*
X109000000Y-87000000D03*
X133000000Y-65000000D03*
X103000000Y-63000000D03*
X145000000Y-95000000D03*
X171000000Y-73000000D03*
X137000000Y-97000000D03*
X94000000Y-84000000D03*
X165000000Y-67000000D03*
X92000000Y-72000000D03*
X101000000Y-81000000D03*
X117000000Y-97000000D03*
X176000000Y-82000000D03*
X115000000Y-93000000D03*
X103000000Y-85000000D03*
X143000000Y-97000000D03*
X123000000Y-91000000D03*
X141000000Y-71000000D03*
X123000000Y-93000000D03*
X119000000Y-63000000D03*
X111000000Y-63000000D03*
X147000000Y-67000000D03*
X153000000Y-69000000D03*
X159000000Y-77000000D03*
X161000000Y-71000000D03*
X109000000Y-95000000D03*
X92000000Y-68000000D03*
X176000000Y-78000000D03*
X149000000Y-97000000D03*
X143000000Y-75000000D03*
X141000000Y-79000000D03*
X169000000Y-79000000D03*
X178000000Y-76000000D03*
X117000000Y-87000000D03*
X119000000Y-95000000D03*
X165000000Y-65000000D03*
X107000000Y-85000000D03*
X119000000Y-93000000D03*
X151000000Y-97000000D03*
X139000000Y-65000000D03*
X131000000Y-97000000D03*
X137000000Y-65000000D03*
X92000000Y-82000000D03*
X121000000Y-91000000D03*
X105000000Y-85000000D03*
X115000000Y-63000000D03*
X153000000Y-63000000D03*
X141000000Y-65000000D03*
X94000000Y-92000000D03*
X115000000Y-85000000D03*
X145000000Y-71000000D03*
X155000000Y-71000000D03*
X151000000Y-77000000D03*
X147000000Y-65000000D03*
X171000000Y-75000000D03*
X176000000Y-84000000D03*
X153000000Y-75000000D03*
X107000000Y-87000000D03*
X99000000Y-85000000D03*
X139000000Y-99000000D03*
X107000000Y-91000000D03*
X99000000Y-87000000D03*
X147000000Y-97000000D03*
X171000000Y-77000000D03*
X129000000Y-83000000D03*
X125000000Y-93000000D03*
X159000000Y-67000000D03*
X113000000Y-85000000D03*
X137000000Y-63000000D03*
X117000000Y-95000000D03*
X169000000Y-75000000D03*
X145000000Y-67000000D03*
X157000000Y-63000000D03*
X178000000Y-80000000D03*
X145000000Y-73000000D03*
X107000000Y-95000000D03*
X101000000Y-89000000D03*
X103000000Y-95000000D03*
X149000000Y-67000000D03*
X103000000Y-65000000D03*
X123000000Y-85000000D03*
X121000000Y-87000000D03*
X105000000Y-61000000D03*
X94000000Y-80000000D03*
X129000000Y-87000000D03*
X125000000Y-61000000D03*
X143000000Y-73000000D03*
X103000000Y-97000000D03*
X159000000Y-95000000D03*
X163000000Y-63000000D03*
X111000000Y-65000000D03*
X127000000Y-97000000D03*
X125000000Y-65000000D03*
X167000000Y-77000000D03*
X103000000Y-89000000D03*
X149000000Y-79000000D03*
X155000000Y-75000000D03*
X129000000Y-65000000D03*
X135000000Y-99000000D03*
X176000000Y-70000000D03*
X103000000Y-87000000D03*
X121000000Y-85000000D03*
X178000000Y-84000000D03*
X121000000Y-81000000D03*
X101000000Y-65000000D03*
X155000000Y-95000000D03*
X111000000Y-95000000D03*
X145000000Y-65000000D03*
X155000000Y-97000000D03*
X163000000Y-95000000D03*
X147000000Y-77000000D03*
X153000000Y-95000000D03*
X143000000Y-99000000D03*
X169000000Y-61000000D03*
X127000000Y-85000000D03*
X153000000Y-99000000D03*
X119000000Y-65000000D03*
X109000000Y-61000000D03*
X99000000Y-91000000D03*
X101000000Y-91000000D03*
X129000000Y-97000000D03*
X173000000Y-75000000D03*
X94000000Y-76000000D03*
X161000000Y-75000000D03*
X97000000Y-93000000D03*
X167000000Y-67000000D03*
X153000000Y-67000000D03*
X178000000Y-70000000D03*
X161000000Y-69000000D03*
X129000000Y-81000000D03*
X115000000Y-95000000D03*
X159000000Y-65000000D03*
X151000000Y-63000000D03*
X153000000Y-79000000D03*
X178000000Y-88000000D03*
X107000000Y-97000000D03*
X113000000Y-63000000D03*
X178000000Y-82000000D03*
X115000000Y-83000000D03*
X173000000Y-73000000D03*
X105000000Y-95000000D03*
X159000000Y-63000000D03*
X143000000Y-95000000D03*
X125000000Y-97000000D03*
X139000000Y-95000000D03*
X169000000Y-77000000D03*
X143000000Y-67000000D03*
X99000000Y-93000000D03*
X135000000Y-97000000D03*
X141000000Y-73000000D03*
X159000000Y-73000000D03*
X145000000Y-69000000D03*
X99000000Y-81000000D03*
X117000000Y-85000000D03*
X103000000Y-91000000D03*
X115000000Y-61000000D03*
X113000000Y-95000000D03*
X94000000Y-70000000D03*
X165000000Y-71000000D03*
X176000000Y-74000000D03*
X176000000Y-90000000D03*
X159000000Y-99000000D03*
X145000000Y-77000000D03*
X149000000Y-63000000D03*
X113000000Y-81000000D03*
X97000000Y-81000000D03*
X161000000Y-99000000D03*
X178000000Y-68000000D03*
X143000000Y-79000000D03*
X109000000Y-93000000D03*
X178000000Y-74000000D03*
X119000000Y-83000000D03*
X159000000Y-75000000D03*
X135000000Y-63000000D03*
X161000000Y-77000000D03*
X165000000Y-69000000D03*
X123000000Y-61000000D03*
X147000000Y-75000000D03*
X123000000Y-97000000D03*
X151000000Y-99000000D03*
X149000000Y-69000000D03*
X161000000Y-95000000D03*
X133000000Y-61000000D03*
X125000000Y-85000000D03*
X165000000Y-79000000D03*
X157000000Y-79000000D03*
X105000000Y-83000000D03*
X119000000Y-89000000D03*
X153000000Y-97000000D03*
X151000000Y-67000000D03*
X157000000Y-97000000D03*
X157000000Y-75000000D03*
X125000000Y-95000000D03*
X161000000Y-97000000D03*
X139000000Y-97000000D03*
X92000000Y-92000000D03*
X99000000Y-97000000D03*
X113000000Y-65000000D03*
X111000000Y-91000000D03*
X123000000Y-89000000D03*
X127000000Y-93000000D03*
X92000000Y-78000000D03*
X143000000Y-69000000D03*
X171000000Y-79000000D03*
X155000000Y-63000000D03*
X145000000Y-63000000D03*
X123000000Y-87000000D03*
X147000000Y-63000000D03*
X92000000Y-70000000D03*
X109000000Y-83000000D03*
X149000000Y-95000000D03*
X94000000Y-82000000D03*
X94000000Y-74000000D03*
X107000000Y-61000000D03*
X101000000Y-83000000D03*
X113000000Y-61000000D03*
X141000000Y-95000000D03*
X123000000Y-63000000D03*
X173000000Y-67000000D03*
X176000000Y-72000000D03*
X119000000Y-85000000D03*
X153000000Y-65000000D03*
X115000000Y-91000000D03*
X165000000Y-97000000D03*
X109000000Y-65000000D03*
X133000000Y-97000000D03*
X94000000Y-72000000D03*
X157000000Y-67000000D03*
X163000000Y-79000000D03*
X92000000Y-80000000D03*
X117000000Y-83000000D03*
X115000000Y-65000000D03*
X163000000Y-65000000D03*
X155000000Y-65000000D03*
X111000000Y-87000000D03*
X145000000Y-79000000D03*
X159000000Y-97000000D03*
X111000000Y-93000000D03*
X149000000Y-77000000D03*
X117000000Y-91000000D03*
X121000000Y-95000000D03*
X169000000Y-71000000D03*
X117000000Y-93000000D03*
X123000000Y-95000000D03*
X178000000Y-90000000D03*
X121000000Y-65000000D03*
X149000000Y-65000000D03*
X109000000Y-97000000D03*
X171000000Y-99000000D03*
X141000000Y-69000000D03*
X101000000Y-97000000D03*
X137000000Y-99000000D03*
X141000000Y-99000000D03*
X147000000Y-71000000D03*
X105000000Y-65000000D03*
X109000000Y-89000000D03*
X155000000Y-79000000D03*
X129000000Y-99000000D03*
X111000000Y-61000000D03*
X151000000Y-75000000D03*
X125000000Y-63000000D03*
X147000000Y-99000000D03*
X167000000Y-99000000D03*
X119000000Y-87000000D03*
X141000000Y-97000000D03*
X145000000Y-75000000D03*
X151000000Y-73000000D03*
X107000000Y-83000000D03*
X167000000Y-61000000D03*
X153000000Y-77000000D03*
X133000000Y-63000000D03*
X111000000Y-89000000D03*
X161000000Y-65000000D03*
X103000000Y-61000000D03*
X92000000Y-76000000D03*
X155000000Y-69000000D03*
X101000000Y-85000000D03*
X157000000Y-71000000D03*
X133000000Y-95000000D03*
X99000000Y-95000000D03*
X131000000Y-99000000D03*
X167000000Y-75000000D03*
X149000000Y-99000000D03*
X123000000Y-81000000D03*
X111000000Y-85000000D03*
X169000000Y-65000000D03*
X117000000Y-89000000D03*
X159000000Y-79000000D03*
X99000000Y-61000000D03*
X147000000Y-79000000D03*
X167000000Y-79000000D03*
X119000000Y-81000000D03*
X169000000Y-69000000D03*
X109000000Y-63000000D03*
X125000000Y-91000000D03*
X105000000Y-97000000D03*
X171000000Y-69000000D03*
X167000000Y-65000000D03*
X113000000Y-89000000D03*
X129000000Y-63000000D03*
X127000000Y-63000000D03*
X165000000Y-73000000D03*
X171000000Y-65000000D03*
X129000000Y-85000000D03*
X115000000Y-89000000D03*
X143000000Y-71000000D03*
X109000000Y-81000000D03*
X121000000Y-97000000D03*
X151000000Y-69000000D03*
X103000000Y-93000000D03*
X111000000Y-83000000D03*
X109000000Y-91000000D03*
X178000000Y-72000000D03*
X159000000Y-71000000D03*
X135000000Y-65000000D03*
X153000000Y-73000000D03*
X115000000Y-97000000D03*
X149000000Y-73000000D03*
X92000000Y-84000000D03*
X125000000Y-87000000D03*
X127000000Y-65000000D03*
X163000000Y-97000000D03*
X169000000Y-99000000D03*
X169000000Y-95000000D03*
X115000000Y-81000000D03*
X94000000Y-86000000D03*
X94000000Y-88000000D03*
X143000000Y-63000000D03*
X167000000Y-63000000D03*
X119000000Y-97000000D03*
X131000000Y-63000000D03*
X97000000Y-89000000D03*
X145000000Y-97000000D03*
X135000000Y-61000000D03*
X105000000Y-87000000D03*
X171000000Y-67000000D03*
X94000000Y-68000000D03*
X129000000Y-91000000D03*
X105000000Y-93000000D03*
X157000000Y-95000000D03*
X131000000Y-61000000D03*
X178000000Y-78000000D03*
X127000000Y-87000000D03*
X101000000Y-93000000D03*
X111000000Y-81000000D03*
X125000000Y-83000000D03*
X127000000Y-95000000D03*
X167000000Y-71000000D03*
X127000000Y-89000000D03*
X99000000Y-65000000D03*
X169000000Y-67000000D03*
X161000000Y-63000000D03*
X125000000Y-81000000D03*
X176000000Y-92000000D03*
X173000000Y-69000000D03*
X129000000Y-61000000D03*
X163000000Y-77000000D03*
X117000000Y-65000000D03*
X147000000Y-95000000D03*
X119000000Y-61000000D03*
X173000000Y-77000000D03*
X105000000Y-89000000D03*
X117000000Y-81000000D03*
X163000000Y-69000000D03*
X151000000Y-65000000D03*
X101000000Y-87000000D03*
X107000000Y-93000000D03*
X155000000Y-73000000D03*
X176000000Y-88000000D03*
X161000000Y-79000000D03*
X171000000Y-97000000D03*
X129000000Y-89000000D03*
X121000000Y-83000000D03*
X103000000Y-83000000D03*
X161000000Y-67000000D03*
X151000000Y-79000000D03*
X137000000Y-95000000D03*
X165000000Y-77000000D03*
X171000000Y-71000000D03*
X157000000Y-99000000D03*
X141000000Y-63000000D03*
X165000000Y-63000000D03*
X97000000Y-85000000D03*
X165000000Y-61000000D03*
X92000000Y-74000000D03*
X92000000Y-86000000D03*
X127000000Y-83000000D03*
X117000000Y-63000000D03*
X113000000Y-83000000D03*
X153000000Y-71000000D03*
X121000000Y-93000000D03*
X103000000Y-81000000D03*
X167000000Y-73000000D03*
X113000000Y-93000000D03*
X155000000Y-99000000D03*
X178000000Y-92000000D03*
X155000000Y-77000000D03*
X178000000Y-86000000D03*
X141000000Y-75000000D03*
X169000000Y-97000000D03*
X121000000Y-61000000D03*
X147000000Y-69000000D03*
X107000000Y-89000000D03*
X99000000Y-89000000D03*
X99000000Y-63000000D03*
X176000000Y-76000000D03*
X94000000Y-90000000D03*
X161000000Y-73000000D03*
%TD*%
%TA.AperFunction,Conductor*%
%TO.N,gnd*%
G36*
X173632600Y-58020713D02*
G01*
X173761795Y-58079714D01*
X173869134Y-58172724D01*
X173945921Y-58292208D01*
X173985936Y-58428485D01*
X173985936Y-58570515D01*
X173945921Y-58706792D01*
X173869134Y-58826276D01*
X173785321Y-58903199D01*
X173712828Y-58955868D01*
X173691049Y-58977034D01*
X173710458Y-59003351D01*
X173863134Y-59156027D01*
X173948250Y-59269728D01*
X173997884Y-59402803D01*
X174008017Y-59544471D01*
X173977826Y-59683256D01*
X173909758Y-59807913D01*
X173876503Y-59846290D01*
X173859408Y-59859408D01*
X173849571Y-59872228D01*
X173748018Y-59948250D01*
X173614943Y-59997884D01*
X173473275Y-60008017D01*
X173334490Y-59977826D01*
X173209833Y-59909758D01*
X173156027Y-59863134D01*
X173003379Y-59710486D01*
X172978419Y-59691801D01*
X172957067Y-59713012D01*
X172840181Y-59867005D01*
X172826404Y-59887125D01*
X172633764Y-60200257D01*
X172622026Y-60221608D01*
X172460856Y-60552054D01*
X172451255Y-60574456D01*
X172323102Y-60919050D01*
X172315732Y-60942282D01*
X172221818Y-61297733D01*
X172216750Y-61321575D01*
X172157970Y-61684492D01*
X172155252Y-61708723D01*
X172132168Y-62075647D01*
X172131827Y-62100000D01*
X172144660Y-62467449D01*
X172146697Y-62491708D01*
X172195323Y-62856146D01*
X172199723Y-62880119D01*
X172283678Y-63238066D01*
X172290388Y-63261467D01*
X172408874Y-63609518D01*
X172417846Y-63632178D01*
X172569727Y-63966997D01*
X172580862Y-63988664D01*
X172764699Y-64307078D01*
X172777887Y-64327541D01*
X172955357Y-64575430D01*
X172976175Y-64597153D01*
X173003256Y-64577327D01*
X173156027Y-64424556D01*
X173269728Y-64339440D01*
X173402803Y-64289806D01*
X173544471Y-64279673D01*
X173683256Y-64309864D01*
X173807913Y-64377932D01*
X173846290Y-64411187D01*
X173859408Y-64428282D01*
X173872228Y-64438119D01*
X173948250Y-64539672D01*
X173997884Y-64672747D01*
X174008017Y-64814415D01*
X173977826Y-64953200D01*
X173909758Y-65077857D01*
X173863134Y-65131663D01*
X173710637Y-65284160D01*
X173691798Y-65309326D01*
X173712318Y-65330128D01*
X173844007Y-65431542D01*
X173864006Y-65445441D01*
X174175806Y-65640275D01*
X174197063Y-65652156D01*
X174526388Y-65815635D01*
X174548715Y-65825389D01*
X174892409Y-65955946D01*
X174915580Y-65963475D01*
X175270379Y-66059871D01*
X175294172Y-66065103D01*
X175656692Y-66126418D01*
X175680874Y-66129302D01*
X176047623Y-66154947D01*
X176072016Y-66155458D01*
X176439517Y-66145192D01*
X176463802Y-66143324D01*
X176828556Y-66097245D01*
X176852571Y-66093010D01*
X177211083Y-66011558D01*
X177234548Y-66005007D01*
X177583401Y-65888959D01*
X177606135Y-65880141D01*
X177942000Y-65730605D01*
X177963743Y-65719622D01*
X178283421Y-65538019D01*
X178303999Y-65524960D01*
X178576142Y-65332984D01*
X178597800Y-65312516D01*
X178577561Y-65284668D01*
X178424556Y-65131663D01*
X178339440Y-65017962D01*
X178289806Y-64884887D01*
X178279673Y-64743219D01*
X178309864Y-64604434D01*
X178377932Y-64479777D01*
X178411187Y-64441400D01*
X178428282Y-64428282D01*
X178438119Y-64415462D01*
X178539672Y-64339440D01*
X178672747Y-64289806D01*
X178814415Y-64279673D01*
X178953200Y-64309864D01*
X179077857Y-64377932D01*
X179131663Y-64424556D01*
X179284148Y-64577041D01*
X179310574Y-64596823D01*
X179359070Y-64586273D01*
X179394426Y-64573086D01*
X179536094Y-64562952D01*
X179674879Y-64593142D01*
X179799536Y-64661208D01*
X179899968Y-64761638D01*
X179968036Y-64886294D01*
X179998228Y-65025079D01*
X179999500Y-65060681D01*
X179999500Y-95679685D01*
X179979287Y-95820270D01*
X179920286Y-95949465D01*
X179827276Y-96056804D01*
X179707792Y-96133591D01*
X179571515Y-96173606D01*
X179429485Y-96173606D01*
X179293208Y-96133591D01*
X179173724Y-96056804D01*
X179082004Y-95951460D01*
X179004993Y-95832874D01*
X179004984Y-95832861D01*
X178997876Y-95821916D01*
X178753781Y-95520484D01*
X178479516Y-95246219D01*
X178178084Y-95002124D01*
X177852789Y-94790875D01*
X177687503Y-94706658D01*
X177518841Y-94620720D01*
X177518834Y-94620717D01*
X177507194Y-94614786D01*
X177495004Y-94610107D01*
X177494998Y-94610104D01*
X177340232Y-94550695D01*
X177145087Y-94475786D01*
X177132475Y-94472407D01*
X177132470Y-94472405D01*
X176783059Y-94378781D01*
X176783057Y-94378781D01*
X176770433Y-94375398D01*
X176757528Y-94373354D01*
X176400240Y-94316765D01*
X176400231Y-94316764D01*
X176387338Y-94314722D01*
X176374289Y-94314038D01*
X176374288Y-94314038D01*
X176013051Y-94295106D01*
X176000000Y-94294422D01*
X175986949Y-94295106D01*
X175625712Y-94314038D01*
X175625711Y-94314038D01*
X175612662Y-94314722D01*
X175599769Y-94316764D01*
X175599760Y-94316765D01*
X175242472Y-94373354D01*
X175229567Y-94375398D01*
X175216943Y-94378781D01*
X175216941Y-94378781D01*
X174867530Y-94472405D01*
X174867525Y-94472407D01*
X174854913Y-94475786D01*
X174659768Y-94550695D01*
X174505002Y-94610104D01*
X174504996Y-94610107D01*
X174492806Y-94614786D01*
X174481166Y-94620717D01*
X174481159Y-94620720D01*
X174312497Y-94706658D01*
X174147211Y-94790875D01*
X173821916Y-95002124D01*
X173520484Y-95246219D01*
X173246219Y-95520484D01*
X173002124Y-95821916D01*
X172790875Y-96147211D01*
X172614786Y-96492806D01*
X172475786Y-96854913D01*
X172375398Y-97229567D01*
X172314722Y-97612662D01*
X172294422Y-98000000D01*
X172314722Y-98387338D01*
X172375398Y-98770433D01*
X172475786Y-99145087D01*
X172614786Y-99507194D01*
X172790875Y-99852789D01*
X173002124Y-100178084D01*
X173246219Y-100479516D01*
X173520484Y-100753781D01*
X173821916Y-100997876D01*
X173832864Y-101004986D01*
X173832874Y-101004993D01*
X173951460Y-101082004D01*
X174058355Y-101175524D01*
X174134573Y-101295371D01*
X174173938Y-101431837D01*
X174173262Y-101573866D01*
X174132599Y-101709951D01*
X174055244Y-101829067D01*
X173947463Y-101921565D01*
X173817989Y-101979951D01*
X173679685Y-101999500D01*
X96320315Y-101999500D01*
X96179730Y-101979287D01*
X96050535Y-101920286D01*
X95943196Y-101827276D01*
X95866409Y-101707792D01*
X95826394Y-101571515D01*
X95826394Y-101429485D01*
X95866409Y-101293208D01*
X95943196Y-101173724D01*
X96048540Y-101082004D01*
X96167126Y-101004993D01*
X96167136Y-101004986D01*
X96178084Y-100997876D01*
X96479516Y-100753781D01*
X96753781Y-100479516D01*
X96997876Y-100178084D01*
X97209125Y-99852789D01*
X97385214Y-99507194D01*
X97524214Y-99145087D01*
X97624602Y-98770433D01*
X97685278Y-98387338D01*
X97705578Y-98000000D01*
X97685278Y-97612662D01*
X97624602Y-97229567D01*
X97524214Y-96854913D01*
X97385214Y-96492806D01*
X97209125Y-96147211D01*
X96997876Y-95821916D01*
X96753781Y-95520484D01*
X96479516Y-95246219D01*
X96178084Y-95002124D01*
X95852789Y-94790875D01*
X95687503Y-94706658D01*
X95518841Y-94620720D01*
X95518834Y-94620717D01*
X95507194Y-94614786D01*
X95495004Y-94610107D01*
X95494998Y-94610104D01*
X95340232Y-94550695D01*
X95145087Y-94475786D01*
X95132475Y-94472407D01*
X95132470Y-94472405D01*
X94783059Y-94378781D01*
X94783057Y-94378781D01*
X94770433Y-94375398D01*
X94757528Y-94373354D01*
X94400240Y-94316765D01*
X94400231Y-94316764D01*
X94387338Y-94314722D01*
X94374289Y-94314038D01*
X94374288Y-94314038D01*
X94013051Y-94295106D01*
X94000000Y-94294422D01*
X93986949Y-94295106D01*
X93625712Y-94314038D01*
X93625711Y-94314038D01*
X93612662Y-94314722D01*
X93599769Y-94316764D01*
X93599760Y-94316765D01*
X93242472Y-94373354D01*
X93229567Y-94375398D01*
X93216943Y-94378781D01*
X93216941Y-94378781D01*
X92867530Y-94472405D01*
X92867525Y-94472407D01*
X92854913Y-94475786D01*
X92659768Y-94550695D01*
X92505002Y-94610104D01*
X92504996Y-94610107D01*
X92492806Y-94614786D01*
X92481166Y-94620717D01*
X92481159Y-94620720D01*
X92312497Y-94706658D01*
X92147211Y-94790875D01*
X91821916Y-95002124D01*
X91520484Y-95246219D01*
X91246219Y-95520484D01*
X91002124Y-95821916D01*
X90995016Y-95832861D01*
X90995007Y-95832874D01*
X90917996Y-95951460D01*
X90824476Y-96058355D01*
X90704629Y-96134573D01*
X90568163Y-96173938D01*
X90426134Y-96173262D01*
X90290049Y-96132599D01*
X90170933Y-96055244D01*
X90078435Y-95947463D01*
X90020049Y-95817989D01*
X90000500Y-95679685D01*
X90000500Y-64320315D01*
X90020713Y-64179730D01*
X90079714Y-64050535D01*
X90172724Y-63943196D01*
X90292208Y-63866409D01*
X90428485Y-63826394D01*
X90570515Y-63826394D01*
X90706792Y-63866409D01*
X90826276Y-63943196D01*
X90917996Y-64048540D01*
X90995007Y-64167126D01*
X90995014Y-64167136D01*
X91002124Y-64178084D01*
X91246219Y-64479516D01*
X91520484Y-64753781D01*
X91821916Y-64997876D01*
X91832858Y-65004982D01*
X91832861Y-65004984D01*
X91863805Y-65025079D01*
X92147211Y-65209125D01*
X92294476Y-65284160D01*
X92481159Y-65379280D01*
X92481166Y-65379283D01*
X92492806Y-65385214D01*
X92504996Y-65389893D01*
X92505002Y-65389896D01*
X92659768Y-65449305D01*
X92854913Y-65524214D01*
X92867525Y-65527593D01*
X92867530Y-65527595D01*
X93216941Y-65621219D01*
X93229567Y-65624602D01*
X93242471Y-65626646D01*
X93242472Y-65626646D01*
X93599760Y-65683235D01*
X93599769Y-65683236D01*
X93612662Y-65685278D01*
X93625711Y-65685962D01*
X93625712Y-65685962D01*
X93986949Y-65704894D01*
X94000000Y-65705578D01*
X94013051Y-65704894D01*
X94374288Y-65685962D01*
X94374289Y-65685962D01*
X94387338Y-65685278D01*
X94400231Y-65683236D01*
X94400240Y-65683235D01*
X94757528Y-65626646D01*
X94757529Y-65626646D01*
X94770433Y-65624602D01*
X94783059Y-65621219D01*
X95132470Y-65527595D01*
X95132475Y-65527593D01*
X95145087Y-65524214D01*
X95340232Y-65449305D01*
X95494998Y-65389896D01*
X95495004Y-65389893D01*
X95507194Y-65385214D01*
X95518834Y-65379283D01*
X95518841Y-65379280D01*
X95705524Y-65284160D01*
X95852789Y-65209125D01*
X96136195Y-65025079D01*
X96167139Y-65004984D01*
X96167142Y-65004982D01*
X96178084Y-64997876D01*
X96479516Y-64753781D01*
X96753781Y-64479516D01*
X96997876Y-64178084D01*
X97134958Y-63966997D01*
X97202012Y-63863742D01*
X97209125Y-63852789D01*
X97326683Y-63622068D01*
X97379280Y-63518841D01*
X97379283Y-63518834D01*
X97385214Y-63507194D01*
X97524214Y-63145087D01*
X97532246Y-63115113D01*
X97621219Y-62783059D01*
X97621219Y-62783057D01*
X97624602Y-62770433D01*
X97631182Y-62728889D01*
X97683235Y-62400240D01*
X97683236Y-62400231D01*
X97685278Y-62387338D01*
X97689824Y-62300607D01*
X97704894Y-62013051D01*
X97705578Y-62000000D01*
X97690671Y-61715563D01*
X97685962Y-61625712D01*
X97685962Y-61625711D01*
X97685278Y-61612662D01*
X97676748Y-61558801D01*
X97626646Y-61242472D01*
X97626646Y-61242471D01*
X97624602Y-61229567D01*
X97552489Y-60960437D01*
X97527595Y-60867530D01*
X97527593Y-60867525D01*
X97524214Y-60854913D01*
X97422727Y-60590531D01*
X97389896Y-60505002D01*
X97389893Y-60504996D01*
X97385214Y-60492806D01*
X97360577Y-60444452D01*
X97222743Y-60173938D01*
X97209125Y-60147211D01*
X97024643Y-59863134D01*
X97004984Y-59832861D01*
X97004982Y-59832858D01*
X96997876Y-59821916D01*
X96753781Y-59520484D01*
X96479516Y-59246219D01*
X96178084Y-59002124D01*
X96167136Y-58995014D01*
X96167126Y-58995007D01*
X96048540Y-58917996D01*
X95941645Y-58824476D01*
X95865427Y-58704629D01*
X95826062Y-58568163D01*
X95826738Y-58426134D01*
X95867401Y-58290049D01*
X95944756Y-58170933D01*
X96052537Y-58078435D01*
X96182011Y-58020049D01*
X96320315Y-58000500D01*
X173492015Y-58000500D01*
X173632600Y-58020713D01*
G37*
%TD.AperFunction*%
%TA.AperFunction,Conductor*%
G36*
X177395566Y-60597554D02*
G01*
X177520223Y-60665622D01*
X177558600Y-60698877D01*
X177571718Y-60715972D01*
X177584538Y-60725809D01*
X177660560Y-60827362D01*
X177710194Y-60960437D01*
X177720327Y-61102105D01*
X177690136Y-61240890D01*
X177622068Y-61365547D01*
X177575444Y-61419353D01*
X176876190Y-62118607D01*
X176856974Y-62144276D01*
X176863701Y-62156594D01*
X177575444Y-62868337D01*
X177660560Y-62982038D01*
X177710194Y-63115113D01*
X177720327Y-63256781D01*
X177690136Y-63395566D01*
X177622068Y-63520223D01*
X177588813Y-63558600D01*
X177571718Y-63571718D01*
X177561881Y-63584538D01*
X177460328Y-63660560D01*
X177327253Y-63710194D01*
X177185585Y-63720327D01*
X177046800Y-63690136D01*
X176922143Y-63622068D01*
X176868337Y-63575444D01*
X176169083Y-62876190D01*
X176143414Y-62856974D01*
X176131096Y-62863701D01*
X175419353Y-63575444D01*
X175305652Y-63660560D01*
X175172577Y-63710194D01*
X175030909Y-63720327D01*
X174892124Y-63690136D01*
X174767467Y-63622068D01*
X174729090Y-63588813D01*
X174715972Y-63571718D01*
X174703152Y-63561881D01*
X174627130Y-63460328D01*
X174577496Y-63327253D01*
X174567363Y-63185585D01*
X174597554Y-63046800D01*
X174665622Y-62922143D01*
X174712246Y-62868337D01*
X175411500Y-62169083D01*
X175430716Y-62143414D01*
X175423989Y-62131096D01*
X174712246Y-61419353D01*
X174627130Y-61305652D01*
X174577496Y-61172577D01*
X174567363Y-61030909D01*
X174597554Y-60892124D01*
X174665622Y-60767467D01*
X174698877Y-60729090D01*
X174715972Y-60715972D01*
X174725809Y-60703152D01*
X174827362Y-60627130D01*
X174960437Y-60577496D01*
X175102105Y-60567363D01*
X175240890Y-60597554D01*
X175365547Y-60665622D01*
X175419353Y-60712246D01*
X176118607Y-61411500D01*
X176144276Y-61430716D01*
X176156594Y-61423989D01*
X176868337Y-60712246D01*
X176982038Y-60627130D01*
X177115113Y-60577496D01*
X177256781Y-60567363D01*
X177395566Y-60597554D01*
G37*
%TD.AperFunction*%
%TA.AperFunction,Conductor*%
G36*
X179641085Y-58020713D02*
G01*
X179770280Y-58079714D01*
X179877619Y-58172724D01*
X179954406Y-58292208D01*
X179994421Y-58428485D01*
X179999500Y-58499500D01*
X179999500Y-59225184D01*
X179979287Y-59365769D01*
X179920286Y-59494964D01*
X179827276Y-59602303D01*
X179707792Y-59679090D01*
X179571515Y-59719105D01*
X179429485Y-59719105D01*
X179378638Y-59704175D01*
X179378434Y-59705082D01*
X179311767Y-59690069D01*
X179284385Y-59710412D01*
X179131663Y-59863134D01*
X179017962Y-59948250D01*
X178884887Y-59997884D01*
X178743219Y-60008017D01*
X178604434Y-59977826D01*
X178479777Y-59909758D01*
X178441400Y-59876503D01*
X178428282Y-59859408D01*
X178415462Y-59849571D01*
X178339440Y-59748018D01*
X178289806Y-59614943D01*
X178279673Y-59473275D01*
X178309864Y-59334490D01*
X178377932Y-59209833D01*
X178424556Y-59156027D01*
X178577495Y-59003088D01*
X178596022Y-58978338D01*
X178574123Y-58956446D01*
X178497420Y-58899065D01*
X178396957Y-58798667D01*
X178328850Y-58674032D01*
X178298615Y-58535257D01*
X178308702Y-58393585D01*
X178358294Y-58260494D01*
X178443373Y-58146766D01*
X178557047Y-58061614D01*
X178690107Y-58011938D01*
X178796332Y-58000500D01*
X179500500Y-58000500D01*
X179641085Y-58020713D01*
G37*
%TD.AperFunction*%
%TD*%
%TA.AperFunction,NonConductor*%
G36*
X91820270Y-58020713D02*
G01*
X91949465Y-58079714D01*
X92056804Y-58172724D01*
X92133591Y-58292208D01*
X92173606Y-58428485D01*
X92173606Y-58570515D01*
X92133591Y-58706792D01*
X92056804Y-58826276D01*
X91951460Y-58917996D01*
X91832874Y-58995007D01*
X91832864Y-58995014D01*
X91821916Y-59002124D01*
X91520484Y-59246219D01*
X91246219Y-59520484D01*
X91002124Y-59821916D01*
X90995016Y-59832861D01*
X90995007Y-59832874D01*
X90917996Y-59951460D01*
X90824476Y-60058355D01*
X90704629Y-60134573D01*
X90568163Y-60173938D01*
X90426134Y-60173262D01*
X90290049Y-60132599D01*
X90170933Y-60055244D01*
X90078435Y-59947463D01*
X90020049Y-59817989D01*
X90000500Y-59679685D01*
X90000500Y-58499500D01*
X90020713Y-58358915D01*
X90079714Y-58229720D01*
X90172724Y-58122381D01*
X90292208Y-58045594D01*
X90428485Y-58005579D01*
X90499500Y-58000500D01*
X91679685Y-58000500D01*
X91820270Y-58020713D01*
G37*
%TD.AperFunction*%
%TA.AperFunction,NonConductor*%
G36*
X179573866Y-99826738D02*
G01*
X179709951Y-99867401D01*
X179829067Y-99944756D01*
X179921565Y-100052537D01*
X179979951Y-100182011D01*
X179999500Y-100320315D01*
X179999500Y-101500500D01*
X179979287Y-101641085D01*
X179920286Y-101770280D01*
X179827276Y-101877619D01*
X179707792Y-101954406D01*
X179571515Y-101994421D01*
X179500500Y-101999500D01*
X178320315Y-101999500D01*
X178179730Y-101979287D01*
X178050535Y-101920286D01*
X177943196Y-101827276D01*
X177866409Y-101707792D01*
X177826394Y-101571515D01*
X177826394Y-101429485D01*
X177866409Y-101293208D01*
X177943196Y-101173724D01*
X178048540Y-101082004D01*
X178167126Y-101004993D01*
X178167136Y-101004986D01*
X178178084Y-100997876D01*
X178479516Y-100753781D01*
X178753781Y-100479516D01*
X178997876Y-100178084D01*
X179004986Y-100167136D01*
X179004993Y-100167126D01*
X179082004Y-100048540D01*
X179175524Y-99941645D01*
X179295371Y-99865427D01*
X179431837Y-99826062D01*
X179573866Y-99826738D01*
G37*
%TD.AperFunction*%
%TA.AperFunction,NonConductor*%
G36*
X90706792Y-99866409D02*
G01*
X90826276Y-99943196D01*
X90917996Y-100048540D01*
X90995007Y-100167126D01*
X90995014Y-100167136D01*
X91002124Y-100178084D01*
X91246219Y-100479516D01*
X91520484Y-100753781D01*
X91821916Y-100997876D01*
X91832864Y-101004986D01*
X91832874Y-101004993D01*
X91951460Y-101082004D01*
X92058355Y-101175524D01*
X92134573Y-101295371D01*
X92173938Y-101431837D01*
X92173262Y-101573866D01*
X92132599Y-101709951D01*
X92055244Y-101829067D01*
X91947463Y-101921565D01*
X91817989Y-101979951D01*
X91679685Y-101999500D01*
X90499500Y-101999500D01*
X90358915Y-101979287D01*
X90229720Y-101920286D01*
X90122381Y-101827276D01*
X90045594Y-101707792D01*
X90005579Y-101571515D01*
X90000500Y-101500500D01*
X90000500Y-100320315D01*
X90020713Y-100179730D01*
X90079714Y-100050535D01*
X90172724Y-99943196D01*
X90292208Y-99866409D01*
X90428485Y-99826394D01*
X90570515Y-99826394D01*
X90706792Y-99866409D01*
G37*
%TD.AperFunction*%
M02*
