M48
; DRILL file {KiCad (6.0.0)} date Mon Mar  6 12:39:09 2023
; FORMAT={-:-/ absolute / inch / decimal}
; #@! TF.CreationDate,2023-03-06T12:39:09+00:00
; #@! TF.GenerationSoftware,Kicad,Pcbnew,(6.0.0)
; #@! TF.FileFunction,Plated,1,2,PTH
FMAT,2
INCH
; #@! TA.AperFunction,Plated,PTH,ViaDrill
T1C0.0157
; #@! TA.AperFunction,Plated,PTH,ComponentDrill
T2C0.0197
; #@! TA.AperFunction,Plated,PTH,ComponentDrill
T3C0.1378
%
G90
G05
T1
X3.622Y-2.6772
X3.622Y-2.7559
X3.622Y-2.8346
X3.622Y-2.9134
X3.622Y-2.9921
X3.622Y-3.0709
X3.622Y-3.1496
X3.622Y-3.2283
X3.622Y-3.3071
X3.622Y-3.3858
X3.622Y-3.4646
X3.622Y-3.5433
X3.622Y-3.622
X3.7008Y-2.6772
X3.7008Y-2.7559
X3.7008Y-2.8346
X3.7008Y-2.9134
X3.7008Y-2.9921
X3.7008Y-3.0709
X3.7008Y-3.1496
X3.7008Y-3.2283
X3.7008Y-3.3071
X3.7008Y-3.3858
X3.7008Y-3.4646
X3.7008Y-3.5433
X3.7008Y-3.622
X3.8189Y-3.189
X3.8189Y-3.2677
X3.8189Y-3.3465
X3.8189Y-3.4252
X3.8189Y-3.5039
X3.8189Y-3.5827
X3.8189Y-3.6614
X3.8976Y-2.4016
X3.8976Y-2.4803
X3.8976Y-2.5591
X3.8976Y-3.189
X3.8976Y-3.2677
X3.8976Y-3.3465
X3.8976Y-3.4252
X3.8976Y-3.5039
X3.8976Y-3.5827
X3.8976Y-3.6614
X3.8976Y-3.7402
X3.8976Y-3.8189
X3.8976Y-3.8976
X3.9764Y-2.4016
X3.9764Y-2.4803
X3.9764Y-2.5591
X3.9764Y-3.189
X3.9764Y-3.2677
X3.9764Y-3.3465
X3.9764Y-3.4252
X3.9764Y-3.5039
X3.9764Y-3.5827
X3.9764Y-3.6614
X3.9764Y-3.7402
X3.9764Y-3.8189
X4.0551Y-2.4016
X4.0551Y-2.4803
X4.0551Y-2.5591
X4.0551Y-3.189
X4.0551Y-3.2677
X4.0551Y-3.3465
X4.0551Y-3.4252
X4.0551Y-3.5039
X4.0551Y-3.5827
X4.0551Y-3.6614
X4.0551Y-3.7402
X4.0551Y-3.8189
X4.1339Y-2.4016
X4.1339Y-2.4803
X4.1339Y-2.5591
X4.1339Y-3.189
X4.1339Y-3.2677
X4.1339Y-3.3465
X4.1339Y-3.4252
X4.1339Y-3.5039
X4.1339Y-3.5827
X4.1339Y-3.6614
X4.1339Y-3.7402
X4.1339Y-3.8189
X4.2126Y-2.4016
X4.2126Y-2.4803
X4.2126Y-2.5591
X4.2126Y-3.189
X4.2126Y-3.2677
X4.2126Y-3.3465
X4.2126Y-3.4252
X4.2126Y-3.5039
X4.2126Y-3.5827
X4.2126Y-3.6614
X4.2126Y-3.7402
X4.2126Y-3.8189
X4.2913Y-2.4016
X4.2913Y-2.4803
X4.2913Y-2.5591
X4.2913Y-3.189
X4.2913Y-3.2677
X4.2913Y-3.3465
X4.2913Y-3.4252
X4.2913Y-3.5039
X4.2913Y-3.5827
X4.2913Y-3.6614
X4.2913Y-3.7402
X4.2913Y-3.8189
X4.3701Y-2.4016
X4.3701Y-2.4803
X4.3701Y-2.5591
X4.3701Y-3.189
X4.3701Y-3.2677
X4.3701Y-3.3465
X4.3701Y-3.4252
X4.3701Y-3.5039
X4.3701Y-3.5827
X4.3701Y-3.6614
X4.3701Y-3.7402
X4.3701Y-3.8189
X4.4488Y-2.4016
X4.4488Y-2.4803
X4.4488Y-2.5591
X4.4488Y-3.189
X4.4488Y-3.2677
X4.4488Y-3.3465
X4.4488Y-3.4252
X4.4488Y-3.5039
X4.4488Y-3.5827
X4.4488Y-3.6614
X4.4488Y-3.7402
X4.4488Y-3.8189
X4.5276Y-2.4016
X4.5276Y-2.4803
X4.5276Y-2.5591
X4.5276Y-3.189
X4.5276Y-3.2677
X4.5276Y-3.3465
X4.5276Y-3.4252
X4.5276Y-3.5039
X4.5276Y-3.5827
X4.5276Y-3.6614
X4.5276Y-3.7402
X4.5276Y-3.8189
X4.6063Y-2.4016
X4.6063Y-2.4803
X4.6063Y-2.5591
X4.6063Y-3.189
X4.6063Y-3.2677
X4.6063Y-3.3465
X4.6063Y-3.4252
X4.6063Y-3.5039
X4.6063Y-3.5827
X4.6063Y-3.6614
X4.6063Y-3.7402
X4.6063Y-3.8189
X4.685Y-2.4016
X4.685Y-2.4803
X4.685Y-2.5591
X4.685Y-3.189
X4.685Y-3.2677
X4.685Y-3.3465
X4.685Y-3.4252
X4.685Y-3.5039
X4.685Y-3.5827
X4.685Y-3.6614
X4.685Y-3.7402
X4.685Y-3.8189
X4.7638Y-2.4016
X4.7638Y-2.4803
X4.7638Y-2.5591
X4.7638Y-3.189
X4.7638Y-3.2677
X4.7638Y-3.3465
X4.7638Y-3.4252
X4.7638Y-3.5039
X4.7638Y-3.5827
X4.7638Y-3.6614
X4.7638Y-3.7402
X4.7638Y-3.8189
X4.8425Y-2.4016
X4.8425Y-2.4803
X4.8425Y-2.5591
X4.8425Y-3.189
X4.8425Y-3.2677
X4.8425Y-3.3465
X4.8425Y-3.4252
X4.8425Y-3.5039
X4.8425Y-3.5827
X4.8425Y-3.6614
X4.8425Y-3.7402
X4.8425Y-3.8189
X4.9213Y-2.4016
X4.9213Y-2.4803
X4.9213Y-2.5591
X4.9213Y-3.189
X4.9213Y-3.2677
X4.9213Y-3.3465
X4.9213Y-3.4252
X4.9213Y-3.5039
X4.9213Y-3.5827
X4.9213Y-3.6614
X4.9213Y-3.7402
X4.9213Y-3.8189
X4.9213Y-3.8976
X5.0Y-2.4016
X5.0Y-2.4803
X5.0Y-2.5591
X5.0Y-3.189
X5.0Y-3.2677
X5.0Y-3.3465
X5.0Y-3.4252
X5.0Y-3.5039
X5.0Y-3.5827
X5.0Y-3.6614
X5.0Y-3.7402
X5.0Y-3.8189
X5.0Y-3.8976
X5.0787Y-2.4016
X5.0787Y-2.4803
X5.0787Y-2.5591
X5.0787Y-3.189
X5.0787Y-3.2677
X5.0787Y-3.3465
X5.0787Y-3.4252
X5.0787Y-3.5039
X5.0787Y-3.5827
X5.0787Y-3.6614
X5.0787Y-3.7402
X5.0787Y-3.8189
X5.0787Y-3.8976
X5.1575Y-2.4016
X5.1575Y-2.4803
X5.1575Y-2.5591
X5.1575Y-3.7402
X5.1575Y-3.8189
X5.1575Y-3.8976
X5.2362Y-2.4016
X5.2362Y-2.4803
X5.2362Y-2.5591
X5.2362Y-3.7402
X5.2362Y-3.8189
X5.2362Y-3.8976
X5.315Y-2.4016
X5.315Y-2.4803
X5.315Y-2.5591
X5.315Y-3.7402
X5.315Y-3.8189
X5.315Y-3.8976
X5.3937Y-2.4803
X5.3937Y-2.5591
X5.3937Y-3.7402
X5.3937Y-3.8189
X5.3937Y-3.8976
X5.4724Y-2.4803
X5.4724Y-2.5591
X5.4724Y-3.7402
X5.4724Y-3.8189
X5.4724Y-3.8976
X5.5512Y-2.4803
X5.5512Y-2.5591
X5.5512Y-2.6378
X5.5512Y-2.7165
X5.5512Y-2.7953
X5.5512Y-2.874
X5.5512Y-2.9528
X5.5512Y-3.0315
X5.5512Y-3.1102
X5.5512Y-3.7402
X5.5512Y-3.8189
X5.5512Y-3.8976
X5.6299Y-2.4803
X5.6299Y-2.5591
X5.6299Y-2.6378
X5.6299Y-2.7165
X5.6299Y-2.7953
X5.6299Y-2.874
X5.6299Y-2.9528
X5.6299Y-3.0315
X5.6299Y-3.1102
X5.6299Y-3.7402
X5.6299Y-3.8189
X5.6299Y-3.8976
X5.7087Y-2.4803
X5.7087Y-2.5591
X5.7087Y-2.6378
X5.7087Y-2.7165
X5.7087Y-2.7953
X5.7087Y-2.874
X5.7087Y-2.9528
X5.7087Y-3.0315
X5.7087Y-3.1102
X5.7087Y-3.7402
X5.7087Y-3.8189
X5.7087Y-3.8976
X5.7874Y-2.4803
X5.7874Y-2.5591
X5.7874Y-2.6378
X5.7874Y-2.7165
X5.7874Y-2.7953
X5.7874Y-2.874
X5.7874Y-2.9528
X5.7874Y-3.0315
X5.7874Y-3.1102
X5.7874Y-3.7402
X5.7874Y-3.8189
X5.7874Y-3.8976
X5.8661Y-2.4803
X5.8661Y-2.5591
X5.8661Y-2.6378
X5.8661Y-2.7165
X5.8661Y-2.7953
X5.8661Y-2.874
X5.8661Y-2.9528
X5.8661Y-3.0315
X5.8661Y-3.1102
X5.8661Y-3.7402
X5.8661Y-3.8189
X5.8661Y-3.8976
X5.9449Y-2.4803
X5.9449Y-2.5591
X5.9449Y-2.6378
X5.9449Y-2.7165
X5.9449Y-2.7953
X5.9449Y-2.874
X5.9449Y-2.9528
X5.9449Y-3.0315
X5.9449Y-3.1102
X5.9449Y-3.7402
X5.9449Y-3.8189
X5.9449Y-3.8976
X6.0236Y-2.4803
X6.0236Y-2.5591
X6.0236Y-2.6378
X6.0236Y-2.7165
X6.0236Y-2.7953
X6.0236Y-2.874
X6.0236Y-2.9528
X6.0236Y-3.0315
X6.0236Y-3.1102
X6.0236Y-3.7402
X6.0236Y-3.8189
X6.0236Y-3.8976
X6.1024Y-2.4803
X6.1024Y-2.5591
X6.1024Y-2.6378
X6.1024Y-2.7165
X6.1024Y-2.7953
X6.1024Y-2.874
X6.1024Y-2.9528
X6.1024Y-3.0315
X6.1024Y-3.1102
X6.1024Y-3.7402
X6.1024Y-3.8189
X6.1024Y-3.8976
X6.1811Y-2.4803
X6.1811Y-2.5591
X6.1811Y-2.6378
X6.1811Y-2.7165
X6.1811Y-2.7953
X6.1811Y-2.874
X6.1811Y-2.9528
X6.1811Y-3.0315
X6.1811Y-3.1102
X6.1811Y-3.7402
X6.1811Y-3.8189
X6.1811Y-3.8976
X6.2598Y-2.4803
X6.2598Y-2.5591
X6.2598Y-2.6378
X6.2598Y-2.7165
X6.2598Y-2.7953
X6.2598Y-2.874
X6.2598Y-2.9528
X6.2598Y-3.0315
X6.2598Y-3.1102
X6.2598Y-3.7402
X6.2598Y-3.8189
X6.2598Y-3.8976
X6.3386Y-2.4803
X6.3386Y-2.5591
X6.3386Y-2.6378
X6.3386Y-2.7165
X6.3386Y-2.7953
X6.3386Y-2.874
X6.3386Y-2.9528
X6.3386Y-3.0315
X6.3386Y-3.1102
X6.3386Y-3.7402
X6.3386Y-3.8189
X6.3386Y-3.8976
X6.4173Y-2.4803
X6.4173Y-2.5591
X6.4173Y-2.6378
X6.4173Y-2.7165
X6.4173Y-2.7953
X6.4173Y-2.874
X6.4173Y-2.9528
X6.4173Y-3.0315
X6.4173Y-3.1102
X6.4173Y-3.7402
X6.4173Y-3.8189
X6.4173Y-3.8976
X6.4961Y-2.4016
X6.4961Y-2.4803
X6.4961Y-2.5591
X6.4961Y-2.6378
X6.4961Y-2.7165
X6.4961Y-2.7953
X6.4961Y-2.874
X6.4961Y-2.9528
X6.4961Y-3.0315
X6.4961Y-3.1102
X6.4961Y-3.7402
X6.4961Y-3.8189
X6.4961Y-3.8976
X6.5748Y-2.4016
X6.5748Y-2.4803
X6.5748Y-2.5591
X6.5748Y-2.6378
X6.5748Y-2.7165
X6.5748Y-2.7953
X6.5748Y-2.874
X6.5748Y-2.9528
X6.5748Y-3.0315
X6.5748Y-3.1102
X6.5748Y-3.7402
X6.5748Y-3.8189
X6.5748Y-3.8976
X6.6535Y-2.4016
X6.6535Y-2.4803
X6.6535Y-2.5591
X6.6535Y-2.6378
X6.6535Y-2.7165
X6.6535Y-2.7953
X6.6535Y-2.874
X6.6535Y-2.9528
X6.6535Y-3.0315
X6.6535Y-3.1102
X6.6535Y-3.7402
X6.6535Y-3.8189
X6.6535Y-3.8976
X6.7323Y-2.4016
X6.7323Y-2.4803
X6.7323Y-2.5591
X6.7323Y-2.6378
X6.7323Y-2.7165
X6.7323Y-2.7953
X6.7323Y-2.874
X6.7323Y-2.9528
X6.7323Y-3.0315
X6.7323Y-3.1102
X6.7323Y-3.8189
X6.7323Y-3.8976
X6.811Y-2.6378
X6.811Y-2.7165
X6.811Y-2.7953
X6.811Y-2.874
X6.811Y-2.9528
X6.811Y-3.0315
X6.811Y-3.1102
X6.9291Y-2.6772
X6.9291Y-2.7559
X6.9291Y-2.8346
X6.9291Y-2.9134
X6.9291Y-2.9921
X6.9291Y-3.0709
X6.9291Y-3.1496
X6.9291Y-3.2283
X6.9291Y-3.3071
X6.9291Y-3.3858
X6.9291Y-3.4646
X6.9291Y-3.5433
X6.9291Y-3.622
X7.0079Y-2.6772
X7.0079Y-2.7559
X7.0079Y-2.8346
X7.0079Y-2.9134
X7.0079Y-2.9921
X7.0079Y-3.0709
X7.0079Y-3.1496
X7.0079Y-3.2283
X7.0079Y-3.3071
X7.0079Y-3.3858
X7.0079Y-3.4646
X7.0079Y-3.5433
X7.0079Y-3.622
T2
X3.5974Y-2.4409
X3.5974Y-3.8583
X3.6277Y-2.3679
X3.6277Y-2.514
X3.6277Y-3.7852
X3.6277Y-3.9313
X3.7008Y-2.3376
X3.7008Y-2.5443
X3.7008Y-3.7549
X3.7008Y-3.9616
X3.7739Y-2.3679
X3.7739Y-2.514
X3.7739Y-3.7852
X3.7739Y-3.9313
X3.8041Y-2.4409
X3.8041Y-3.8583
X6.8258Y-3.8583
X6.8315Y-2.4466
X6.8561Y-3.7852
X6.8561Y-3.9313
X6.8617Y-2.3735
X6.8617Y-2.5197
X6.9291Y-3.7549
X6.9291Y-3.9616
X6.9348Y-2.3433
X6.9348Y-2.55
X7.0022Y-3.7852
X7.0022Y-3.9313
X7.0079Y-2.3735
X7.0079Y-2.5197
X7.0325Y-3.8583
X7.0381Y-2.4466
T3
X3.7008Y-2.4409
X3.7008Y-3.8583
X6.9291Y-3.8583
X6.9348Y-2.4466
T0
M30
